<?xml version="1.0" encoding="UTF-8" standalone="no"?><!DOCTYPE svg PUBLIC "-//W3C//DTD SVG 1.1//EN" "http://www.w3.org/Graphics/SVG/1.1/DTD/svg11.dtd"><svg width="100%" height="100%" viewBox="0 0 3351 1253" version="1.1" xmlns="http://www.w3.org/2000/svg" xmlns:xlink="http://www.w3.org/1999/xlink" xml:space="preserve" xmlns:serif="http://www.serif.com/" style="fill-rule:evenodd;clip-rule:evenodd;stroke-linejoin:round;stroke-miterlimit:2;"><rect x="250.919" y="250.038" width="2850" height="752.4" style="fill:none;"/><g><g><path d="M1300.92,849.988c82.843,-0 150,-67.157 150,-150c0,-82.843 -67.157,-150 -150,-150l0,150l0,150Z" style="fill:#2320b7;"/><path d="M1300.92,399.988c-82.842,-0 -150,67.157 -150,150c0,82.843 67.158,150 150,150l0,-150l0,-150Z" style="fill:#2320b7;"/></g><g><circle cx="1675.92" cy="699.988" r="150" style="fill:#2320b7;"/><path d="M1825.92,549.988c0,-82.843 -67.157,-150 -150,-150c-82.842,-0 -150,67.157 -150,150l150,-0l150,-0Z" style="fill:#2320b7;"/></g><g><path d="M550.919,702.488c82.843,-0 150,-67.157 150,-150c0,-82.843 -67.157,-150 -150,-150l0,150l0,150Z" style="fill:#2320b7;"/><path d="M400.919,552.488l300,300l-300,-0l0,-300Z" style="fill:#2320b7;"/></g><g><rect x="775.919" y="402.488" width="300" height="150" style="fill:#2320b7;"/><rect x="775.919" y="702.488" width="300" height="150" style="fill:#2320b7;"/></g><g><path d="M2425.92,399.988l150,300l-300,-0l150,-300Z" style="fill:#2320b7;"/><path d="M2575.92,849.988c0,-82.843 -67.157,-150 -150,-150c-82.842,-0 -150,67.157 -150,150l150,-0l150,-0Z" style="fill:#2320b7;"/></g><g><path d="M2800.92,552.488l150,300l-300,-0l150,-300Z" style="fill:#2320b7;"/><rect x="2650.92" y="402.488" width="300" height="150" style="fill:#2320b7;"/></g><g><rect x="1900.92" y="552.488" width="150" height="300" style="fill:#2320b7;"/><rect x="2050.92" y="402.488" width="150" height="300" style="fill:#2320b7;"/></g></g><path d="M3100.92,250.038l0,752.4l-2850,-0l0,-752.4l2850,-0Zm-75,75l-2700,-0l0,602.4l2700,-0l0,-602.4Z" style="fill:#2320b7;"/></svg>